<?xml version="1.0" encoding="utf-8"?>
<!-- Generator: Adobe Illustrator 19.2.1, SVG Export Plug-In . SVG Version: 6.00 Build 0)  -->
<!DOCTYPE svg PUBLIC "-//W3C//DTD SVG 1.1//EN" "http://www.w3.org/Graphics/SVG/1.1/DTD/svg11.dtd">
<svg version="1.1" id="Layer_1" xmlns="http://www.w3.org/2000/svg" xmlns:xlink="http://www.w3.org/1999/xlink" x="0px" y="0px"
	 width="237.5px" height="108px" viewBox="0 0 237.5 108" enable-background="new 0 0 237.5 108" xml:space="preserve">
<g id="Layer_1_1_">
</g>
<g id="Final_Artwork">
	<g>
		<ellipse fill="none" stroke="#FFFFFF" stroke-width="0.5294" stroke-miterlimit="10" cx="46.8" cy="63.7" rx="2.4" ry="2.4"/>
		<path fill="none" stroke="#FFFFFF" stroke-width="0.5294" stroke-miterlimit="10" d="M50.2,67.1c-2.7,0-6.6,0-6.6,0
			s-2.8,0-2.8,2.7c0,2.5,0,7,0,7.8c0,1,0.9,1.1,1,1.1s1,0,1-1c0-0.9,0-6.7,0-7c0-0.8,0.3-0.8,0.5-0.8c0,0,0.5,0,0.4,0.8
			c0,0.4,0,18.2,0,19.3s1.1,1.2,1.4,1.2c0.2,0,1.4-0.2,1.4-1.4c0-1.1,0-11.2,0-11.2h0.8c0,0,0,9.8,0,11.1s1.3,1.5,1.5,1.5
			c0.3,0,1.3-0.3,1.3-1.5c0-1.3,0-18.2,0-19.1c0-0.9,0.8-0.9,0.8,0c0,0.5,0,6.6,0,7.1c0,0.7,0.6,1,1.1,1s0.9-0.2,0.9-1.1
			s0-7.2,0-7.5S52.9,67.1,50.2,67.1z"/>
	</g>
	<g>
		<ellipse fill="#FFFFFF" cx="65.8" cy="63.7" rx="2.4" ry="2.4"/>
		<path fill="#FFFFFF" d="M69.1,67.1c-2.7,0-6.6,0-6.6,0s-2.8,0-2.8,2.7c0,2.5,0,7,0,7.8c0,1,0.9,1.1,1,1.1s1,0,1-1c0-0.9,0-6.7,0-7
			c0-0.8,0.3-0.8,0.5-0.8c0,0,0.5,0,0.4,0.8c0,0.4,0,18.2,0,19.3s1.1,1.2,1.4,1.2c0.2,0,1.4-0.2,1.4-1.4c0-1.1,0-11.2,0-11.2h0.8
			c0,0,0,9.8,0,11.1s1.3,1.5,1.5,1.5c0.3,0,1.3-0.3,1.3-1.5c0-1.3,0-18.2,0-19.1c0-0.9,0.8-0.9,0.8,0c0,0.5,0,6.6,0,7.1
			c0,0.7,0.6,1,1.1,1s0.9-0.2,0.9-1.1c0-0.9,0-7.2,0-7.5S71.8,67.1,69.1,67.1z"/>
	</g>
	<g>
		
			<ellipse transform="matrix(0.8757 -0.4828 0.4828 0.8757 -27.3816 23.9754)" fill="#FFFFFF" cx="32.9" cy="65.2" rx="2.4" ry="2.4"/>
		<path fill="#FFFFFF" d="M37.4,66.6c-2.4,1.2-5.8,3.2-5.8,3.2s-2.4,1.4-1.1,3.7c1.2,2.2,3.4,6.1,3.8,6.8c0.5,0.8,1.3,0.5,1.4,0.4
			c0.1,0,0.9-0.5,0.4-1.4c-0.4-0.7-3.2-5.8-3.4-6.1c-0.4-0.7-0.1-0.9,0-1c0,0,0.4-0.2,0.8,0.5c0.2,0.4,8.8,15.9,9.3,16.9
			s1.6,0.5,1.8,0.4c0.2-0.1,1.1-0.8,0.5-1.9c-0.5-1-5.4-9.8-5.4-9.8l0.7-0.4c0,0,5.8,6.9,7,7.9s1.8,0.7,2,0.6c0.2-0.1,1.2-1,0.4-2
			c-1-1.2-9.4-9.7-11-14.7c-0.3-0.8,0.2-0.9,0.8-0.3c0.4,0.3,4.5,4.7,4.9,5.1c0.6,0.5,1.3,0.6,1.7,0.1c0.4-0.5,0.2-1.1-0.3-1.6
			c-0.6-0.6-4.4-4.8-4.6-5.2C41.1,67.5,39.4,65.6,37.4,66.6z"/>
	</g>
	<g>
		<ellipse fill="#FFFFFF" cx="84.7" cy="63.7" rx="2.4" ry="2.4"/>
		<path fill="#FFFFFF" d="M88.1,67.1c-2.7,0-6.6,0-6.6,0s-2.8,0-2.8,2.7c0,2.5,0,7,0,7.8c0,1,0.9,1.1,1,1.1s1,0,1-1c0-0.9,0-6.7,0-7
			c0-0.8,0.3-0.8,0.5-0.8c0,0,0.5,0,0.4,0.8c0,0.4,0,18.2,0,19.3s1.1,1.2,1.4,1.2c0.2,0,1.4-0.2,1.4-1.4c0-1.1,0-11.2,0-11.2h0.8
			c0,0,0,9.8,0,11.1s1.3,1.5,1.5,1.5c0.3,0,1.3-0.3,1.3-1.5c0-1.3,0-18.2,0-19.1c0-0.9,0.8-0.9,0.8,0c0,0.5,0,6.6,0,7.1
			c0,0.7,0.6,1,1.1,1s0.9-0.2,0.9-1.1c0-0.9,0-7.2,0-7.5S90.8,67.1,88.1,67.1z"/>
	</g>
	<g>
		<ellipse fill="#FFFFFF" cx="102.2" cy="63.7" rx="2.4" ry="2.4"/>
		<path fill="#FFFFFF" d="M105.5,67.1c-2.7,0-6.6,0-6.6,0s-2.8,0-2.8,2.7c0,2.5,0,7,0,7.8c0,1,0.9,1.1,1,1.1s1,0,1-1
			c0-0.9,0-6.7,0-7c0-0.8,0.3-0.8,0.5-0.8c0,0,0.5,0,0.4,0.8c0,0.4,0,18.2,0,19.3s1.1,1.2,1.4,1.2c0.2,0,1.4-0.2,1.4-1.4
			c0-1.1,0-11.2,0-11.2h0.8c0,0,0,9.8,0,11.1s1.3,1.5,1.5,1.5c0.3,0,1.3-0.3,1.3-1.5c0-1.3,0-18.2,0-19.1c0-0.9,0.8-0.9,0.8,0
			c0,0.5,0,6.6,0,7.1c0,0.7,0.6,1,1.1,1s0.9-0.2,0.9-1.1c0-0.9,0-7.2,0-7.5S108.2,67.1,105.5,67.1z"/>
	</g>
	<g>
		<ellipse fill="#FFFFFF" cx="120.4" cy="63.7" rx="2.4" ry="2.4"/>
		<path fill="#FFFFFF" d="M123.7,67.1c-2.7,0-6.6,0-6.6,0s-2.8,0-2.8,2.7c0,2.5,0,7,0,7.8c0,1,0.9,1.1,1,1.1s1,0,1-1
			c0-0.9,0-6.7,0-7c0-0.8,0.3-0.8,0.5-0.8c0,0,0.5,0,0.4,0.8c0,0.4,0,18.2,0,19.3s1.1,1.2,1.4,1.2c0.2,0,1.4-0.2,1.4-1.4
			c0-1.1,0-11.2,0-11.2h0.8c0,0,0,9.8,0,11.1s1.3,1.5,1.5,1.5c0.3,0,1.3-0.3,1.3-1.5s0-18.2,0-19.1c0-0.9,0.8-0.9,0.8,0
			c0,0.5,0,6.6,0,7.1c0,0.7,0.6,1,1.1,1s0.9-0.2,0.9-1.1c0-0.9,0-7.2,0-7.5C126.5,69.7,126.4,67.1,123.7,67.1z"/>
	</g>
	<g>
		<ellipse fill="#FFFFFF" cx="138.2" cy="63.7" rx="2.4" ry="2.4"/>
		<path fill="#FFFFFF" d="M141.5,67.1c-2.7,0-6.6,0-6.6,0s-2.8,0-2.8,2.7c0,2.5,0,7,0,7.8c0,1,0.9,1.1,1,1.1s1,0,1-1
			c0-0.9,0-6.7,0-7c0-0.8,0.3-0.8,0.5-0.8c0,0,0.5,0,0.4,0.8c0,0.4,0,18.2,0,19.3s1.1,1.2,1.4,1.2c0.2,0,1.4-0.2,1.4-1.4
			c0-1.1,0-11.2,0-11.2h0.8c0,0,0,9.8,0,11.1c0,1.4,1.3,1.5,1.5,1.5c0.3,0,1.3-0.3,1.3-1.5c0-1.3,0-18.2,0-19.1c0-0.9,0.8-0.9,0.8,0
			c0,0.5,0,6.6,0,7.1c0,0.7,0.6,1,1.1,1s0.9-0.2,0.9-1.1s0-7.2,0-7.5S144.2,67.1,141.5,67.1z"/>
	</g>
	<g>
		<ellipse fill="#FFFFFF" cx="157.2" cy="63.7" rx="2.4" ry="2.4"/>
		<path fill="#FFFFFF" d="M160.5,67.1c-2.7,0-6.6,0-6.6,0s-2.8,0-2.8,2.7c0,2.5,0,7,0,7.8c0,1,0.9,1.1,1,1.1s1,0,1-1
			c0-0.9,0-6.7,0-7c0-0.8,0.3-0.8,0.5-0.8c0,0,0.5,0,0.4,0.8c0,0.4,0,18.2,0,19.3s1.1,1.2,1.4,1.2c0.2,0,1.4-0.2,1.4-1.4
			c0-1.1,0-11.2,0-11.2h0.8c0,0,0,9.8,0,11.1s1.3,1.5,1.5,1.5c0.3,0,1.3-0.3,1.3-1.5c0-1.3,0-18.2,0-19.1c0-0.9,0.8-0.9,0.8,0
			c0,0.5,0,6.6,0,7.1c0,0.7,0.6,1,1.1,1s0.9-0.2,0.9-1.1s0-7.2,0-7.5S163.2,67.1,160.5,67.1z"/>
	</g>
	<g>
		<ellipse fill="#FFFFFF" cx="176.1" cy="63.7" rx="2.4" ry="2.4"/>
		<path fill="#FFFFFF" d="M179.5,67.1c-2.7,0-6.6,0-6.6,0s-2.8,0-2.8,2.7c0,2.5,0,7,0,7.8c0,1,0.9,1.1,1,1.1s1,0,1-1
			c0-0.9,0-6.7,0-7c0-0.8,0.3-0.8,0.5-0.8c0,0,0.5,0,0.4,0.8c0,0.4,0,18.2,0,19.3s1.1,1.2,1.4,1.2c0.2,0,1.4-0.2,1.4-1.4
			c0-1.1,0-11.2,0-11.2h0.8c0,0,0,9.8,0,11.1s1.3,1.5,1.5,1.5c0.3,0,1.3-0.3,1.3-1.5c0-1.3,0-18.2,0-19.1c0-0.9,0.8-0.9,0.8,0
			c0,0.5,0,6.6,0,7.1c0,0.7,0.6,1,1.1,1s0.9-0.2,0.9-1.1s0-7.2,0-7.5S182.2,67.1,179.5,67.1z"/>
	</g>
	<g>
		<ellipse fill="#FFFFFF" cx="193.5" cy="63.7" rx="2.4" ry="2.4"/>
		<path fill="#FFFFFF" d="M196.9,67.1c-2.7,0-6.6,0-6.6,0s-2.8,0-2.8,2.7c0,2.5,0,7,0,7.8c0,1,0.9,1.1,1,1.1s1,0,1-1
			c0-0.9,0-6.7,0-7c0-0.8,0.3-0.8,0.5-0.8c0,0,0.5,0,0.4,0.8c0,0.4,0,18.2,0,19.3s1.1,1.2,1.4,1.2c0.2,0,1.4-0.2,1.4-1.4
			c0-1.1,0-11.2,0-11.2h0.8c0,0,0,9.8,0,11.1s1.3,1.5,1.5,1.5c0.3,0,1.3-0.3,1.3-1.5c0-1.3,0-18.2,0-19.1c0-0.9,0.8-0.9,0.8,0
			c0,0.5,0,6.6,0,7.1c0,0.7,0.6,1,1.1,1s0.9-0.2,0.9-1.1s0-7.2,0-7.5S199.6,67.1,196.9,67.1z"/>
	</g>
	<g>
		<ellipse fill="#FFFFFF" cx="211.7" cy="63.7" rx="2.4" ry="2.4"/>
		<path fill="#FFFFFF" d="M215.1,67.1c-2.7,0-6.6,0-6.6,0s-2.8,0-2.8,2.7c0,2.5,0,7,0,7.8c0,1,0.9,1.1,1,1.1s1,0,1-1
			c0-0.9,0-6.7,0-7c0-0.8,0.3-0.8,0.5-0.8c0,0,0.5,0,0.4,0.8c0,0.4,0,18.2,0,19.3s1.1,1.2,1.4,1.2c0.2,0,1.4-0.2,1.4-1.4
			c0-1.1,0-11.2,0-11.2h0.8c0,0,0,9.8,0,11.1s1.3,1.5,1.5,1.5c0.3,0,1.3-0.3,1.3-1.5s0-18.2,0-19.1c0-0.9,0.8-0.9,0.8,0
			c0,0.5,0,6.6,0,7.1c0,0.7,0.6,1,1.1,1s0.9-0.2,0.9-1.1c0-0.9,0-7.2,0-7.5C217.8,69.7,217.8,67.1,215.1,67.1z"/>
	</g>
	<g>
		<path fill="#E6E7E8" stroke="#E6E7E8" stroke-width="0.2287" stroke-miterlimit="10" d="M23.8,43.7C23.6,43.5,13.5,34.6,0,22.9
			v11.4C10.4,43.4,17.7,49.8,18,50c3,2.5,3.9,3.3,3.9,3.3l6.7-5.1C28.6,48.2,26.4,46,23.8,43.7z"/>
		<path fill="#00A0C3" d="M19.4,51.7c1.5,1,2.7,3.7,3,6.4c0.7,6.3,7.7,7.3,8.5,8.1c-0.3-1.2,0-1.8,0.3-2.4c-4.3-2.1-6-3.4-5.2-5.8
			c0.7-1.8,3.9-2.8,7.8-1.6c4.6,1.4,2.1,4.6,1,6.2c-0.9,1.3,0.7,3,2.3,1c4.8-6.1,1.5-8.3-2.2-9.9C38.3,52.6,43.5,56,45,57
			s3.1-1.3,1.8-2.3c-4.4-3.4-10.1-4.6-13.3-4.1c3.6-1.3,9.2,0.3,10.5,0.7c1.4,0.4,3-1.7,0.8-2.9s-8.7-1.6-12.1-0.9
			c3-2.4,5.2-2.2,5.8-2.1c0.8,0.1,1.3-0.2,1.6-1.1c0.2-0.9-0.6-1.7-1.3-1.8c-1.1-0.2-3.2,0.1-4,0.3c-0.6,0.1-2.6,1-3.9,2
			c-0.9,0.7-2,1-3.1,0.7c-1.5-0.3-2.1-0.8-2.5-1.3C24.4,45.1,20,50.1,19.4,51.7z"/>
	</g>
</g>
</svg>
