<?xml version="1.0" encoding="utf-8"?>
<!-- Generator: Adobe Illustrator 19.2.1, SVG Export Plug-In . SVG Version: 6.00 Build 0)  -->
<!DOCTYPE svg PUBLIC "-//W3C//DTD SVG 1.1//EN" "http://www.w3.org/Graphics/SVG/1.1/DTD/svg11.dtd">
<svg version="1.1" id="Layer_1" xmlns="http://www.w3.org/2000/svg" xmlns:xlink="http://www.w3.org/1999/xlink" x="0px" y="0px"
	 width="288px" height="324px" viewBox="0 0 288 324" style="enable-background:new 0 0 288 324;" xml:space="preserve">
<style type="text/css">
	.st0{fill:none;stroke:#E6E7E8;stroke-width:8.753;stroke-miterlimit:10;}
	.st1{fill:#00A0C3;}
</style>
<g id="Layer_1_1_">
</g>
<path class="st0" d="M53.3,269.7H39.1c-6.5,0-12.3-4.1-12.3-15.2v-15.1c0-6.5,0-121.4,0-121.4c0-6.5,5.3-11.8,11.8-11.8h221
	c6.5,0,11.8-5.3,11.8-11.8v-60c0-6.5-5.3-11.8-11.8-11.8H159.2c-7.8,0-13.4-3.1-13.4-10.3s0-12.3,0-12.3"/>
<path class="st1" d="M53.1,276.7c2.7-0.3,7.1,1.4,9.9,4.4c5.6,6.1,14,7.5,15.7,7.7c0.4-1.9,0.6-2.8,0.8-5
	c-8.1-0.3-11.5-3.6-12.4-6.4c-1-2.8,2.3-8.1,8.3-10s8.6,3,10.3,5.3c1.7,2.3,5.3,0.4,3.7-2.8c-4.1-7.4-10.4-8.4-16.4-6.4
	c2.8-4.7,12.2-6,15.1-6.4s2.4-4.6-0.2-4.5c-8.5,0.5-16.3,4.8-19.5,8.6c2.9-5.1,10.9-8.9,12.9-9.8c2-0.9,1.7-5-2-4.1
	s-11.6,7-14.8,11.1c1.1-5.8,3.8-7.7,4.6-8.3c1-0.7,1.3-1.6,0.7-2.8c-0.6-1.2-2.4-1.3-3.3-0.9c-1.5,0.8-3.5,3.3-4.3,4.3
	c-0.6,0.8-2,3.7-2.5,6.2c-0.3,1.7-1.4,3.1-2.9,4c-2.1,1.2-3.2,1.2-4.1,1C52.2,264,52.2,274.2,53.1,276.7z"/>
</svg>
