<?xml version="1.0" encoding="utf-8"?>
<!-- Generator: Adobe Illustrator 19.2.1, SVG Export Plug-In . SVG Version: 6.00 Build 0)  -->
<!DOCTYPE svg PUBLIC "-//W3C//DTD SVG 1.1//EN" "http://www.w3.org/Graphics/SVG/1.1/DTD/svg11.dtd">
<svg version="1.1" id="Layer_1" xmlns="http://www.w3.org/2000/svg" xmlns:xlink="http://www.w3.org/1999/xlink" x="0px" y="0px"
	 width="288px" height="288px" viewBox="0 0 288 288" enable-background="new 0 0 288 288" xml:space="preserve">
<g id="Layer_1_1_">
</g>
<g id="Final_Artwork">
	<g>
		<path fill="#65C29C" d="M235.8,75.5L200,95.3c-12.7,7-27,10.7-41.6,10.7h-2.8c-4.2,0-7.7,1.6-9.3,5.1s-12.8,25.6-14.4,28.8
			c-1.6,3.2-0.4,8.4,4,10.6c4.7,2.4,10.6,1.5,13-2.8c2.1-3.7,7.9-15.1,9.9-19c0.4-0.7,1.3-0.9,1.9-0.5l42.5,26.9
			c0.4,0.2,0.9,0.3,1.3,0.1l60.4-28.7c0.5-0.3,0.8-0.8,0.8-1.4c-0.4-3.5-2.5-16-9.8-28.7c-7.3-12.8-16.3-19.2-18.8-20.9
			C236.8,75.3,236.3,75.3,235.8,75.5z"/>
		<path fill="#65C29C" d="M142,106.4c1.1,0,1.9,1.2,1.3,2.2c-3.2,6.1-12.3,23.1-15.1,29.4c-3.5,7.7,4.1,14.9,6.4,16.1
			c4,2.1,14.1,3.7,17.6-3.6c2.7-5.6,6.1-12.6,7.6-15.5c0.4-0.8,1.3-1,2.1-0.6c6.8,4.1,36.7,22.4,39.2,23.8c2.9,1.6,3.2,6.4,1.6,9.6
			c-1.6,3.2-6.4,4.8-8.9,3.5c-2.6-1.3-23.2-15-26.2-17.1s-4.4,2.1-3.2,2.7c1.3,0.6,23.2,14.9,25.9,16.6c2.7,1.7,2,7.1,0.9,9
			c-1.4,2.5-4.9,5.1-8.9,3.2c-4-1.9-16.4-10.3-20.4-13s-4.3,2.1-2.4,3c1.9,0.9,15.6,9.6,18.5,11.7c3.6,2.6,1.6,8.1,1.1,9.1
			c-1.9,3.2-5,4.4-7.4,3.4c-2-0.9-11.4-6.6-14.9-8.7c-0.7-0.4-0.9-1.3-0.5-2c0.7-1.2,1.5-3.2,2.1-4.9c0.7-2.1,0.3-6.7-3.8-9.7
			c-3.3-2.4-7.6-3.1-10.2-2.4c-0.8,0.2-1.7-0.2-2-0.9c-1.9-4.7-8.6-9.3-15.2-7.5c-0.7,0.2-1.5-0.2-1.7-0.9
			c-1.9-5.5-8.5-9.5-14.9-7.6c-0.7,0.2-1.5-0.2-1.7-0.9c-2.5-7.2-14.7-9.7-17.7-6.7c-3.4,3.5-8.7,14.1-10.6,17.9
			c-0.4,0.8-1.3,1.1-2,0.6l-57.1-31.5c-0.5-0.3-0.8-0.7-0.8-1.3c-0.1-3.6,0.2-17.8,6.8-31c6.4-12.9,15.3-20.1,17.9-22
			c0.5-0.3,1.1-0.4,1.6-0.1l21.3,11.2c19.5,10.2,41.3,15.4,63.3,15.2L142,106.4z"/>
		<path fill="#65C29C" d="M153.3,186.5c4.1-9.3-9-14.3-12.8-6.8c-3.8,7.4-7.4,14.3-9.8,19.2c-3.4,7,9.5,13.3,12.9,7
			C147.6,198.7,153.3,186.5,153.3,186.5z"/>
		<path fill="#65C29C" d="M136.5,177.7c4.1-9.3-9-14.3-12.8-6.8c-3.8,7.4-7.4,14.3-9.8,19.2c-3.4,7,9.5,13.3,12.9,7
			C130.8,189.9,136.5,177.7,136.5,177.7z"/>
		<path fill="#65C29C" d="M120.1,169.9c4.1-9.3-9-14.3-12.8-6.8c-3.8,7.4-7.4,14.3-9.8,19.2c-3.4,7,9.5,13.3,12.9,7
			C114.4,182.1,120.1,169.9,120.1,169.9z"/>
		<path fill="#65C29C" d="M104.1,160.9c4.1-9.3-9-14.3-12.8-6.8c-3.8,7.4-7.4,14.3-9.8,19.2c-3.4,7,9.5,13.3,12.9,7
			C98.4,173.1,104.1,160.9,104.1,160.9z"/>
		<path fill="#65C29C" d="M154.1,193.9l-6.9,12.7c0,0,3.2,2.1,7.9,5c4.7,3,8.6-0.9,9.5-2.7c1-1.8,2.7-6.4-1.6-9.3
			C158.8,196.8,154.1,193.9,154.1,193.9z"/>
	</g>
</g>
</svg>
