<?xml version="1.0" encoding="utf-8"?>
<!-- Generator: Adobe Illustrator 19.2.1, SVG Export Plug-In . SVG Version: 6.00 Build 0)  -->
<!DOCTYPE svg PUBLIC "-//W3C//DTD SVG 1.1//EN" "http://www.w3.org/Graphics/SVG/1.1/DTD/svg11.dtd">
<svg version="1.1" id="Layer_1" xmlns="http://www.w3.org/2000/svg" xmlns:xlink="http://www.w3.org/1999/xlink" x="0px" y="0px"
	 width="288px" height="288px" viewBox="0 0 288 288" enable-background="new 0 0 288 288" xml:space="preserve">
<g id="Layer_1_1_">
</g>
<g id="Final_Artwork">
	<g>
		<path fill="#FFFFFF" d="M262.9,161.8l-4.3,6.4c-1.2,1.8-3.7,2.3-5.5,1.1l-20-13.5l-86.8-58.5c-1.4-0.9-3.1-0.9-4.5,0l-57.2,38.5
			l-27.9,18.8L35,169.2c-1.9,1.3-4.4,0.8-5.7-1.1l-4.2-6.3c-1.3-1.9-0.8-4.4,1.1-5.7l30.5-20.5l27.9-18.8l37-24.9l20.6-13.6
			c1.3-0.8,2.9-0.8,4.2,0l20.1,13.5l66.6,44.9l28.8,19.4C263.7,157.5,264.2,159.9,262.9,161.8z"/>
		<path fill="#FFFFFF" d="M84.6,82.3v17c0,0.6-0.3,1.1-0.7,1.4l-24.6,16.6c-1.1,0.7-2.6,0-2.6-1.4V82.3c0-0.9,0.7-1.7,1.7-1.7H83
			C83.8,80.7,84.6,81.4,84.6,82.3z"/>
		<path fill="#FFFFFF" d="M141.7,114.4l-83.2,56.1c-1.1,0.8-1.8,2-1.8,3.4v88.3c0,2.2,1.8,4.1,4.1,4.1h63.1c2.2,0,4.1-1.8,4.1-4.1
			v-27.9c0-2.2,1.8-4.1,4.1-4.1h25.7c2.2,0,4.1,1.8,4.1,4.1v27.9c0,2.2,1.8,4.1,4.1,4.1h63c2.2,0,4.1-1.8,4.1-4.1v-87.1
			c0-1.4-0.7-2.6-1.8-3.4l-85-57.2C144.9,113.5,143.1,113.5,141.7,114.4z"/>
		<g>
			<path fill="#FFFFFF" d="M131,41.9c0-2.2-0.8-3.7-2.9-4.2c-1.6-0.4-3.6,0.2-4.7,3.1c0,0.1-0.2,0.1-0.2,0c-0.2-1.9-1.1-3-2-3.4
				c-3.1-1.4-6-0.7-7.9,2.2c-3.9,6-4.6,11.7-3.2,19c0.4,2.2,0.9,4.6,1.5,6.8c0.7,2.7,1.2,5.3,1.2,8.1c0,3.8-0.7,7.5-1.9,11.2
				c-0.5,1.4-0.3,2.7,0.8,3.8c1.1,1,2.4,1.5,4,1.1c1.2-0.3,1.9-1.2,2.3-2.3c2-5.9,3-11.8,2.2-18c-0.1-0.9,0-1.7,0.8-2.1
				c1.4-0.7,2.6-1.3,4.1-2.1c1-0.5,2.1-1,3.2-1.5c0.4-0.2,0.9,0,1.2,0.4c0.7,1.5,0.7,3,0.5,4.5c-0.2,1.6-0.5,3.2-0.8,4.8
				c-0.4,2.2,0.2,3.5,2,4.1c2.1,0.6,4.5-0.2,5-2.1c1.4-5.3,2.4-10.6-0.4-15.8c-2-3.6-4.4-4.7-8.2-3.5c-1.3,0.4-2.6,0.9-4.2,1.5
				c-0.2,0.1-0.4-0.1-0.4-0.2c-0.1-1.7-0.2-3.3-0.4-4.9c0-0.1,0.1-0.2,0.2-0.2c3.7,0.2,6.5-1.5,8-8.1C130.9,43.1,131,41.9,131,41.9z
				"/>
			<path fill="#FFFFFF" d="M136.1,48.4c0.8-0.5,1.6-1.1,2.2-1.7l1-1c0.5-0.4,0.4-1-0.1-1.2c-1.8-1.1-4-1.6-6.3-1.9
				c-0.7-0.1-0.9,0.1-0.9,0.6l1.5,1.4c0.6,0.6,1.2,1.3,1.5,2.1c0,0.1,0,0.1,0.1,0.2l0.4,1.1C135.5,48.3,135.7,48.6,136.1,48.4
				L136.1,48.4z"/>
			<path fill="#FFFFFF" d="M84.6,53.5c0.9-3.7,3.6-6,6.7-7.7c5.4-3,11.4-4.3,17.6-5.3c0.4-0.1,0.7,0.4,0.5,0.7
				c0,0.1-0.1,0.1-0.1,0.2c-1.7,2.7-2.7,5.4-2.9,8.6c-0.3,4.6,0.3,6.8,1.3,10.9c1.1,4.5,1.4,8.3-3.2,10.2c-2.7,1.1-5.4,0.7-8-0.5
				c-4.5-2-8.2-5-10.6-9.4C84.7,58.9,83.9,56.3,84.6,53.5z"/>
			
				<ellipse transform="matrix(0.9065 -0.4222 0.4222 0.9065 -0.7383 53.3076)" fill="#FFFFFF" cx="120" cy="28.3" rx="6.5" ry="6.5"/>
			<path fill="#FFFFFF" d="M114.2,31.4l12.2-5.7c0.2-0.1,0.3-0.3,0.2-0.5l-0.5-1.1c-0.1-0.2-0.3-0.3-0.5-0.2l-12.2,5.7
				c-0.2,0.1-0.3,0.3-0.2,0.5l0.5,1.1C113.7,31.4,114,31.5,114.2,31.4z"/>
		</g>
	</g>
</g>
</svg>
