<?xml version="1.0" encoding="utf-8"?>
<!-- Generator: Adobe Illustrator 19.2.1, SVG Export Plug-In . SVG Version: 6.00 Build 0)  -->
<!DOCTYPE svg PUBLIC "-//W3C//DTD SVG 1.1//EN" "http://www.w3.org/Graphics/SVG/1.1/DTD/svg11.dtd">
<svg version="1.1" id="Layer_1" xmlns="http://www.w3.org/2000/svg" xmlns:xlink="http://www.w3.org/1999/xlink" x="0px" y="0px"
	 width="288px" height="288px" viewBox="0 0 288 288" enable-background="new 0 0 288 288" xml:space="preserve">
<g id="Layer_1_1_">
</g>
<g id="Final_Artwork">
	<g>
		<path fill="#FFFFFF" stroke="#BABCBE" stroke-width="2.3511" stroke-miterlimit="10" d="M237.3,261.8h-218
			c0,0,38.5-149.2,13.8-236h218C277.8,114.5,237.3,261.8,237.3,261.8z"/>
		<g>
			<path fill="#E6E7E8" d="M26.4,261.8c0.3-1,0.8-1.9,1-2.9c2-10.8,8.4-18.5,17.3-24.5c13.5-9,28.1-14.9,44.2-17
				c7.7-1,8-1.5,9.3-8.9c1.4-8,1.5-15.6-3.6-22.7c-1.5-2-2.4-4.6-2.9-7.1c-1.2-5.6-2.3-10.5-8.7-13.5c-5.4-2.6-5.8-13.4-2.4-18.7
				c1.3-2,1.9-4.6,2.2-7c1.2-9.5,1.1-19.3,3.4-28.4c6.1-24.6,27.9-31.9,48.1-29.8c26,2.8,36.1,18.4,39.1,45.1
				c0.5,4.9,0.1,9.9,0.4,14.9c0.1,1.6,0.6,3.4,1.5,4.6c5.6,7.3,3.4,17.5-4.7,21.8c-1.6,0.9-2.9,2.9-3.7,4.7
				c-2.2,5.2-3.3,10.9-6.1,15.8c-5,8.9-2.8,17.6-0.5,26.4c0.3,1.2,3.1,2.2,4.9,2.5c17,2,32.5,7.8,46.8,17.3
				c10,6.7,16.2,15.5,17.9,27.5C162.3,261.8,94.4,261.8,26.4,261.8z"/>
		</g>
		<path fill="#00A0C3" d="M212.2,234.3c-14.3-9.5-29.8-15.3-46.8-17.3c-1.8-0.2-4.6-1.3-4.9-2.5c-2.3-8.8-4.5-17.5,0.5-26.4
			c2.7-4.8,3.9-10.6,6.1-15.8c0.8-1.8,2.1-3.9,3.7-4.7c8.1-4.3,10.3-14.4,4.7-21.8c-0.9-1.2-1.4-3-1.5-4.6c-0.1-1.4-0.1-2.8-0.1-4.2
			H83.3c-0.1,0.8-0.2,1.7-0.3,2.5c-0.3,2.4-0.9,5-2.2,7c-3.4,5.2-3.1,16,2.4,18.7c6.3,3.1,7.5,7.9,8.7,13.5c0.5,2.5,1.5,5.1,2.9,7.1
			c5.1,7,5,14.6,3.6,22.7c-1.3,7.4-1.7,7.9-9.3,8.9c-16.1,2.1-30.8,8-44.2,17c-8.9,6-15.3,13.7-17.3,24.5c-0.2,1-0.7,1.9-1,2.9
			c67.9,0,135.8,0,203.7,0C228.5,249.8,222.2,240.9,212.2,234.3z"/>
	</g>
</g>
</svg>
