<?xml version="1.0" encoding="utf-8"?>
<!-- Generator: Adobe Illustrator 19.2.1, SVG Export Plug-In . SVG Version: 6.00 Build 0)  -->
<!DOCTYPE svg PUBLIC "-//W3C//DTD SVG 1.1//EN" "http://www.w3.org/Graphics/SVG/1.1/DTD/svg11.dtd">
<svg version="1.1" id="Layer_1" xmlns="http://www.w3.org/2000/svg" xmlns:xlink="http://www.w3.org/1999/xlink" x="0px" y="0px"
	 width="288px" height="288px" viewBox="0 0 288 288" enable-background="new 0 0 288 288" xml:space="preserve">
<g id="Layer_1_1_">
</g>
<g id="Final_Artwork">
	<path fill="#3EBDAC" d="M211.8,117.5h-2.3c0.2-2.4,0.3-4.9,0.3-7.4c0-53.8-23.5-84.6-64.6-84.6c-29.5,0-64.6,14.7-64.6,84.6
		c0,2.5,0.1,4.9,0.3,7.4h-4.6c-6.3,0-11.4,5.1-11.4,11.4V233c0,6.3,5.1,11.4,11.4,11.4h135.5c6.3,0,11.4-5.1,11.4-11.4V128.9
		C223.2,122.6,218.1,117.5,211.8,117.5z M153.2,181.8V205h-17.3v-24c-3.4-2.7-5.6-6.9-5.6-11.7c0-8.2,6.7-14.9,14.9-14.9
		s14.9,6.7,14.9,14.9C160.1,174.6,157.4,179.2,153.2,181.8z M197.4,117.5H93c-0.2-2.4-0.3-4.9-0.3-7.4c0-48.8,17.2-72.5,52.5-72.5
		c45.6,0,52.5,45.4,52.5,72.5C197.7,112.6,197.6,115,197.4,117.5z"/>
</g>
</svg>
