<?xml version="1.0" encoding="utf-8"?>
<!-- Generator: Adobe Illustrator 19.2.1, SVG Export Plug-In . SVG Version: 6.00 Build 0)  -->
<!DOCTYPE svg PUBLIC "-//W3C//DTD SVG 1.1//EN" "http://www.w3.org/Graphics/SVG/1.1/DTD/svg11.dtd">
<svg version="1.1" id="Layer_1" xmlns="http://www.w3.org/2000/svg" xmlns:xlink="http://www.w3.org/1999/xlink" x="0px" y="0px"
	 width="288px" height="288px" viewBox="0 0 288 288" enable-background="new 0 0 288 288" xml:space="preserve">
<g id="Layer_1_1_">
</g>
<g id="Final_Artwork">
	<g>
		
			<ellipse transform="matrix(0.2398 -0.9708 0.9708 0.2398 52.5971 249.9248)" fill="#00B8B8" stroke="#FFFFFF" stroke-width="1.9534" stroke-miterlimit="10" cx="185.9" cy="91.4" rx="20.8" ry="20.8"/>
		<path fill="#00B8B8" stroke="#FFFFFF" stroke-width="1.9534" stroke-miterlimit="10" d="M192.6,121.3c-0.6-0.5-1.5-0.5-2.2,0
			c-7.6,6.5-17.3,11.4-27.5,8.9c-10.7-2.6-19.4-11.9-19.1-17.1c-1.8,7.3-7.2,37-7.2,50.6c0,14.1,1.8,23.6,0.7,34.5
			c-1.1,10.6-15.1,32.7-28.5,41c-13.4,8.4,1.5,22.6,10.6,18.5c9.1-4.1,36.5-32.5,39.7-53.4c1.2-9.3,1.1-14.6,0.8-17.3
			c-0.1-1,0.8-1.8,1.8-1.6c5.5,1.3,20,4.9,24.5,6c5.7,1.4,9.5,5.7,8.8,10.1c-0.7,4.4-4.3,22.8-5.6,32.3c-1.3,9.6,4.4,11.4,7.8,12.2
			c3.3,0.8,9.9,0.4,11.4-7s7.6-34.4,7.9-45.5c0.4-14.1-4.4-17-14.7-19.9s-26.5-6.8-26.5-6.8s1.4-24,12.2-30.7
			c1.2-0.8,2.8-0.6,3.9,0.3c5.9,4.9,7.2,6.2,10,8.2c3,2.2,6.7,5.2,10.9,2.2c2.6-1.9,21-15.8,25-19s4.2-6.5,2.7-9s-5.5-3.8-9.3-1.6
			c-3.7,2.3-16.8,11.6-20.4,14.4c-3.3,2.6-4.7,1.3-6.6-0.5C202.3,129.7,195.3,123.6,192.6,121.3z"/>
		<path fill="#00B8B8" stroke="#FFFFFF" stroke-width="1.9534" stroke-miterlimit="10" d="M248.8,141.3l-97.2-93
			c0.1-0.2,0.2-0.5,0.2-0.7c0.2-0.8,0.2-1.5,0.2-2.3c10.8-8.9,23-14.4,34.9-16.5c-13.9-2.3-28.6,1.1-40.6,10.1
			c-3.7-0.7-7.4,1.6-8.3,5.3c-0.2,0.9-0.3,1.8-0.1,2.6c-10,11.6-14.3,26.4-12.7,40.7c2.7-12,9.1-24.1,18.8-34.5
			c1.7,0.2,3.3-0.1,4.7-1l97,92.8L248.8,141.3z"/>
		<path fill="#00B8B8" stroke="#FFFFFF" stroke-width="1.9534" stroke-miterlimit="10" d="M209.1,95.7l-0.1,0.6
			c-0.4,1.5-1.9,2.4-3.4,2.1l-40.3-9.9c-1.5-0.4-2.4-1.9-2.1-3.4l0.1-0.6c0.4-1.5,1.9-2.4,3.4-2.1l0.3,0.1
			c4.2-8.8,14-13.7,23.8-11.3c9.8,2.4,16.2,11.4,15.8,21.1l0.3,0.1C208.5,92.7,209.4,94.2,209.1,95.7z"/>
		<path fill="#00B8B8" stroke="#FFFFFF" stroke-width="1.9534" stroke-miterlimit="10" d="M172.6,114.7c0.5-0.4,0.5-1.1,0-1.5
			c-3-2.4-7-4.7-9.8-5.9c-2.4-1.1-12-4.1-15.9-0.5c-3.4,3-4,8.8,0.9,14.3c3.4,3.9,10.2,8,15,9.2c5.2,1.3,14.7,1.4,25.8-7.9
			s14.1-13.6,16-15.6s5.3-8.6,3-12.2s-7.3-4.1-10.3-0.8c-3,3.3-10.7,13.1-14.7,16.2s-8.9,9.5-19.7,6.5c-1.2-0.8-0.2-1.7,1.2-1.3
			C165,115.5,170.3,116.5,172.6,114.7z"/>
		<path fill="#00B8B8" stroke="#FFFFFF" stroke-width="1.9969" stroke-miterlimit="10" d="M62.7,219.1l0.8-3.1L52,213.1l-0.8,3.1
			c-5.6,1-10.4,5.2-11.8,11c-2,7.9,2.9,16,10.8,17.9c7.9,2,16-2.9,17.9-10.8C69.5,228.5,67.2,222.5,62.7,219.1z"/>
		
			<ellipse transform="matrix(0.2398 -0.9708 0.9708 0.2398 -164.3891 219.1409)" fill="none" stroke="#00B8B8" stroke-width="1.7092" stroke-miterlimit="10" cx="57.7" cy="214.5" rx="3.7" ry="3.7"/>
		
			<ellipse transform="matrix(0.2398 -0.9708 0.9708 0.2398 -151.7395 223.5411)" fill="none" stroke="#00B8B8" stroke-width="1.7092" stroke-miterlimit="10" cx="66.9" cy="208.7" rx="2.8" ry="3.7"/>
		
			<ellipse transform="matrix(0.2398 -0.9708 0.9708 0.2398 -152.9195 236.9527)" fill="none" stroke="#00B8B8" stroke-width="1.7092" stroke-miterlimit="10" cx="74.8" cy="216.1" rx="3.7" ry="3.7"/>
		
			<ellipse transform="matrix(0.9777 -0.2098 0.2098 0.9777 -44.6279 23.4902)" fill="none" stroke="#00B8B8" stroke-width="1.7092" stroke-miterlimit="10" cx="88.4" cy="222.1" rx="3.7" ry="2.8"/>
		
			<ellipse transform="matrix(0.2398 -0.9708 0.9708 0.2398 -137.4863 263.7705)" fill="none" stroke="#00B8B8" stroke-width="1.7092" stroke-miterlimit="10" cx="99.7" cy="219.7" rx="2.5" ry="3.7"/>
		
			<ellipse transform="matrix(0.2398 -0.9708 0.9708 0.2398 -139.7267 277.4137)" fill="none" stroke="#00B8B8" stroke-width="1.7092" stroke-miterlimit="10" cx="107.3" cy="227.9" rx="3.7" ry="3.7"/>
		
			<ellipse transform="matrix(0.9501 -0.312 0.312 0.9501 -62.5445 29.878)" fill="none" stroke="#00B8B8" stroke-width="1.7092" stroke-miterlimit="10" cx="62.1" cy="210.4" rx="3.7" ry="1.8"/>
		
			<ellipse transform="matrix(0.2747 -0.9615 0.9615 0.2747 -152.0362 237.7516)" fill="none" stroke="#00B8B8" stroke-width="1.7092" stroke-miterlimit="10" cx="81.6" cy="219.7" rx="1.8" ry="3.7"/>
		
			<ellipse transform="matrix(0.9441 -0.3296 0.3296 0.9441 -67.845 43.5855)" fill="none" stroke="#00B8B8" stroke-width="1.7092" stroke-miterlimit="10" cx="94.6" cy="221.9" rx="3.7" ry="0.9"/>
		
			<ellipse transform="matrix(0.7992 -0.601 0.601 0.7992 -112.499 107.6592)" fill="none" stroke="#00B8B8" stroke-width="1.7092" stroke-miterlimit="10" cx="104.9" cy="222.2" rx="1.3" ry="3.7"/>
		
			<ellipse transform="matrix(0.9519 -0.3065 0.3065 0.9519 -62.0968 31.7646)" fill="none" stroke="#00B8B8" stroke-width="1.7092" stroke-miterlimit="10" cx="70.1" cy="213.6" rx="1" ry="3.7"/>
		
			<rect x="120.3" y="227.6" transform="matrix(0.731 -0.6824 0.6824 0.731 -130.9218 149.456)" fill="#00B8B8" stroke="#FFFFFF" stroke-width="1.9534" stroke-miterlimit="10" width="7.6" height="26.4"/>
		
			<ellipse transform="matrix(0.2398 -0.9708 0.9708 0.2398 -138.512 285.3469)" fill="none" stroke="#00B8B8" stroke-width="1.7092" stroke-miterlimit="10" cx="112.9" cy="231.1" rx="0.5" ry="3.7"/>
	</g>
</g>
</svg>
