<?xml version="1.0" encoding="utf-8"?>
<!-- Generator: Adobe Illustrator 19.2.1, SVG Export Plug-In . SVG Version: 6.00 Build 0)  -->
<!DOCTYPE svg PUBLIC "-//W3C//DTD SVG 1.1//EN" "http://www.w3.org/Graphics/SVG/1.1/DTD/svg11.dtd">
<svg version="1.1" xmlns="http://www.w3.org/2000/svg" xmlns:xlink="http://www.w3.org/1999/xlink" x="0px" y="0px" width="272px"
	 height="184px" viewBox="0 0 272 184" enable-background="new 0 0 272 184" xml:space="preserve">
<g id="Layer_1">
	<g id="Layer_1_1_">
	</g>
</g>
<g id="Final_Artwork">
	<g>
		<path fill="#E6E7E8" d="M245.4,92.8H26.6c-1.8,0-3.3-1.5-3.3-3.3V26.9c0-1.8,1.5-3.3,3.3-3.3h218.8c1.8,0,3.3,1.5,3.3,3.3v62.6
			C248.7,91.3,247.2,92.8,245.4,92.8z"/>
		<rect x="43.7" y="78.4" fill="#929497" width="186.5" height="3.9"/>
		<polygon fill="#FFFFFF" points="46.9,80.3 46.9,155.7 47.5,155.7 53,160.3 59.4,155.7 64.9,160.3 71.3,155.7 76.7,160.3 
			83.2,155.7 88.6,160.3 95.1,155.7 100.5,160.3 107,155.7 112.4,160.3 118.9,155.7 124.3,160.3 130.8,155.7 136.2,160.3 
			142.7,155.7 148.1,160.3 154.6,155.7 160,160.3 166.5,155.7 171.9,160.3 178.3,155.7 183.8,160.3 190.2,155.7 195.7,160.3 
			202.1,155.7 207.6,160.3 214,155.7 219.5,160.3 225.9,155.7 226.5,155.7 226.5,80.3 		"/>
		<g>
			<circle fill="#929497" cx="236.7" cy="32.4" r="3.8"/>
			<circle fill="#929497" cx="236.7" cy="83.4" r="3.8"/>
			<circle fill="#929497" cx="36.6" cy="83.4" r="3.8"/>
			<circle fill="#929497" cx="36.6" cy="32.4" r="3.8"/>
		</g>
		<g>
			<path fill="#929497" d="M67.7,124.3v1.3h-1.8v6.5h-1.6v-6.5h-1.8v-1.3H67.7z"/>
			<path fill="#929497" d="M70.7,132.1v-3.8c0-0.5-0.1-0.9-0.6-0.9c-0.5,0-0.6,0.4-0.6,0.9v3.8h-1.5v-7.8h1.5v2.9h0
				c0.2-0.2,0.3-0.4,0.5-0.5c0.2-0.1,0.5-0.2,0.7-0.2c0.7,0,1.4,0.4,1.4,1.2v4.4H70.7z"/>
			<path fill="#929497" d="M74.6,129.6c0,0.6,0,1.6,0.7,1.6c0.5,0,0.6-0.5,0.6-1h1.5c0,0.6-0.2,1.1-0.6,1.4
				c-0.4,0.3-0.9,0.5-1.6,0.5c-2,0-2.2-1.2-2.2-2.9c0-1.5,0.2-2.8,2.2-2.8c2.1,0,2.3,1.3,2.2,3.1H74.6z M76,128.7
				c0-0.5,0-1.3-0.7-1.3c-0.7,0-0.7,0.8-0.7,1.3H76z"/>
			<path fill="#929497" d="M80.3,129.3c0-1.5,0.2-2.8,2.2-2.8c2,0,2.2,1.3,2.2,2.8c0,1.7-0.3,2.9-2.2,2.9S80.3,131,80.3,129.3z
				 M83.3,129.2c0-1.1-0.1-1.7-0.7-1.7c-0.6,0-0.7,0.6-0.7,1.7c0,1.7,0.1,2,0.7,2S83.3,130.9,83.3,129.2z"/>
			<path fill="#929497" d="M88.3,131.5L88.3,131.5c-0.2,0.2-0.3,0.4-0.6,0.5c-0.2,0.1-0.5,0.2-0.7,0.2c-0.7,0-1.4-0.4-1.4-1.2v-4.4
				h1.5v3.8c0,0.5,0.1,0.8,0.6,0.8c0.5,0,0.6-0.4,0.6-0.8v-3.8h1.5v4.4c0,0.4,0,0.7,0.1,1.1h-1.6V131.5z"/>
			<path fill="#929497" d="M90.1,126.6h0.6v-0.9l1.5-0.7v1.5h0.8v0.9h-0.8v2.9c0,0.4,0,0.7,0.5,0.7c0.1,0,0.2,0,0.3,0v0.9
				c-0.2,0-0.4,0.1-0.8,0.1c-1.3,0-1.5-0.9-1.5-1.2v-3.4h-0.6V126.6z"/>
			<path fill="#929497" d="M95.5,129.3c0-1.5,0.2-2.8,2.2-2.8c2,0,2.2,1.3,2.2,2.8c0,1.7-0.3,2.9-2.2,2.9S95.5,131,95.5,129.3z
				 M98.4,129.2c0-1.1-0.1-1.7-0.7-1.7c-0.6,0-0.7,0.6-0.7,1.7c0,1.7,0.1,2,0.7,2S98.4,130.9,98.4,129.2z"/>
			<path fill="#929497" d="M103.1,125.2c-0.6,0-0.7,0.2-0.7,0.7v0.7h0.7v0.9h-0.7v4.5h-1.5v-4.5h-0.7v-0.9h0.7
				c0-1.6-0.1-2.4,1.7-2.4c0.2,0,0.4,0,0.5,0V125.2z"/>
			<path fill="#929497" d="M107.1,126.6v0.6h0c0.3-0.5,0.7-0.7,1.3-0.7c1.6,0,1.5,1.8,1.5,2.9c0,1.1,0,2.8-1.5,2.8
				c-0.6,0-0.9-0.2-1.2-0.6h0v2.9h-1.5v-7.8H107.1z M108.4,129.3c0-1.1,0-1.8-0.6-1.8c-0.6,0-0.6,0.8-0.6,1.8c0,1.4,0.1,1.9,0.6,1.9
				C108.3,131.2,108.4,130.7,108.4,129.3z"/>
			<path fill="#929497" d="M110.6,129.3c0-1.5,0.2-2.8,2.2-2.8c2,0,2.2,1.3,2.2,2.8c0,1.7-0.3,2.9-2.2,2.9S110.6,131,110.6,129.3z
				 M113.6,129.2c0-1.1-0.1-1.7-0.7-1.7c-0.6,0-0.7,0.6-0.7,1.7c0,1.7,0.1,2,0.7,2S113.6,130.9,113.6,129.2z"/>
			<path fill="#929497" d="M118.7,128.6c0-0.8-0.2-1.1-0.7-1.1c-0.6,0-0.7,0.6-0.7,1.7c0,1.7,0.1,2,0.7,2c0.5,0,0.7-0.4,0.7-1.1h1.5
				c0,1.5-0.8,2.1-2.2,2.1c-2,0-2.2-1.2-2.2-2.9c0-1.5,0.2-2.8,2.2-2.8c1.4,0,2.2,0.6,2.2,2.1H118.7z"/>
			<path fill="#929497" d="M121,132.1v-7.8h1.5v4.7h0l1.4-2.3h1.6L124,129l1.7,3H124l-1.4-3h0v3H121z"/>
			<path fill="#929497" d="M127.6,129.6c0,0.6,0,1.6,0.7,1.6c0.5,0,0.6-0.5,0.6-1h1.5c0,0.6-0.2,1.1-0.6,1.4
				c-0.4,0.3-0.9,0.5-1.6,0.5c-2,0-2.2-1.2-2.2-2.9c0-1.5,0.2-2.8,2.2-2.8c2.1,0,2.3,1.3,2.2,3.1H127.6z M129,128.7
				c0-0.5,0-1.3-0.7-1.3c-0.7,0-0.7,0.8-0.7,1.3H129z"/>
			<path fill="#929497" d="M130.7,126.6h0.6v-0.9l1.5-0.7v1.5h0.8v0.9h-0.8v2.9c0,0.4,0,0.7,0.5,0.7c0.1,0,0.2,0,0.3,0v0.9
				c-0.2,0-0.4,0.1-0.8,0.1c-1.3,0-1.5-0.9-1.5-1.2v-3.4h-0.6V126.6z"/>
			<path fill="#929497" d="M139,128.6c0-0.8-0.2-1.1-0.7-1.1c-0.6,0-0.7,0.6-0.7,1.7c0,1.7,0.1,2,0.7,2c0.5,0,0.7-0.4,0.7-1.1h1.5
				c0,1.5-0.8,2.1-2.2,2.1c-2,0-2.2-1.2-2.2-2.9c0-1.5,0.2-2.8,2.2-2.8c1.4,0,2.2,0.6,2.2,2.1H139z"/>
			<path fill="#929497" d="M141.2,129.3c0-1.5,0.2-2.8,2.2-2.8c2,0,2.2,1.3,2.2,2.8c0,1.7-0.3,2.9-2.2,2.9S141.2,131,141.2,129.3z
				 M144.1,129.2c0-1.1-0.1-1.7-0.7-1.7c-0.6,0-0.7,0.6-0.7,1.7c0,1.7,0.1,2,0.7,2S144.1,130.9,144.1,129.2z"/>
			<path fill="#929497" d="M147.7,130.3c0,0.2,0,0.5,0.1,0.7c0.1,0.2,0.2,0.3,0.6,0.3s0.6-0.2,0.6-0.6c0-1.2-2.7-0.9-2.7-2.6
				c0-1.2,1.2-1.5,2.2-1.5c1,0,2,0.5,1.9,1.7h-1.5c0-0.4,0-0.6-0.2-0.7c-0.1-0.1-0.2-0.1-0.4-0.1c-0.3,0-0.5,0.2-0.5,0.6
				c0,0.9,2.7,0.8,2.7,2.6c0,1-0.8,1.7-2,1.7c-1.3,0-2.2-0.3-2.1-1.9H147.7z"/>
			<path fill="#929497" d="M150.4,126.6h0.6v-0.9l1.5-0.7v1.5h0.8v0.9h-0.8v2.9c0,0.4,0,0.7,0.5,0.7c0.1,0,0.2,0,0.3,0v0.9
				c-0.2,0-0.4,0.1-0.8,0.1c-1.3,0-1.5-0.9-1.5-1.2v-3.4h-0.6V126.6z"/>
			<path fill="#929497" d="M158.2,125.2c-0.6,0-0.7,0.2-0.7,0.7v0.7h0.7v0.9h-0.7v4.5h-1.5v-4.5h-0.7v-0.9h0.7
				c0-1.6-0.1-2.4,1.7-2.4c0.2,0,0.4,0,0.5,0V125.2z"/>
			<path fill="#929497" d="M158.5,129.3c0-1.5,0.2-2.8,2.2-2.8c2,0,2.2,1.3,2.2,2.8c0,1.7-0.3,2.9-2.2,2.9S158.5,131,158.5,129.3z
				 M161.4,129.2c0-1.1-0.1-1.7-0.7-1.7c-0.6,0-0.7,0.6-0.7,1.7c0,1.7,0.1,2,0.7,2S161.4,130.9,161.4,129.2z"/>
			<path fill="#929497" d="M165.2,126.6v0.7h0c0.3-0.6,0.8-0.8,1.4-0.8v1.4c-1.3-0.1-1.4,0.7-1.4,1.2v3h-1.5v-5.5H165.2z"/>
			<path fill="#929497" d="M168.6,126.6h0.6v-0.9l1.5-0.7v1.5h0.8v0.9h-0.8v2.9c0,0.4,0,0.7,0.5,0.7c0.1,0,0.2,0,0.3,0v0.9
				c-0.2,0-0.4,0.1-0.8,0.1c-1.3,0-1.5-0.9-1.5-1.2v-3.4h-0.6V126.6z"/>
			<path fill="#929497" d="M174.6,132.1v-3.8c0-0.5-0.1-0.9-0.6-0.9c-0.5,0-0.6,0.4-0.6,0.9v3.8h-1.5v-7.8h1.5v2.9h0
				c0.2-0.2,0.3-0.4,0.5-0.5c0.2-0.1,0.5-0.2,0.7-0.2c0.7,0,1.4,0.4,1.4,1.2v4.4H174.6z"/>
			<path fill="#929497" d="M178.5,129.6c0,0.6,0,1.6,0.7,1.6c0.5,0,0.6-0.5,0.6-1h1.5c0,0.6-0.2,1.1-0.6,1.4
				c-0.4,0.3-0.9,0.5-1.6,0.5c-2,0-2.2-1.2-2.2-2.9c0-1.5,0.2-2.8,2.2-2.8c2.1,0,2.3,1.3,2.2,3.1H178.5z M179.9,128.7
				c0-0.5,0-1.3-0.7-1.3c-0.7,0-0.7,0.8-0.7,1.3H179.9z"/>
			<path fill="#929497" d="M183.8,126.6h1.5l0.8,4.1h0l0.8-4.1h1.5l-1.5,5.5h-1.7L183.8,126.6z"/>
			<path fill="#929497" d="M190.5,124.3v1.2H189v-1.2H190.5z M190.5,132.1H189v-5.5h1.5V132.1z"/>
			<path fill="#929497" d="M194.4,128.6c0-0.8-0.2-1.1-0.7-1.1c-0.6,0-0.7,0.6-0.7,1.7c0,1.7,0.1,2,0.7,2c0.5,0,0.7-0.4,0.7-1.1h1.5
				c0,1.5-0.8,2.1-2.2,2.1c-2,0-2.2-1.2-2.2-2.9c0-1.5,0.2-2.8,2.2-2.8c1.4,0,2.2,0.6,2.2,2.1H194.4z"/>
			<path fill="#929497" d="M196.1,126.6h0.6v-0.9l1.5-0.7v1.5h0.8v0.9h-0.8v2.9c0,0.4,0,0.7,0.5,0.7c0.1,0,0.2,0,0.3,0v0.9
				c-0.2,0-0.4,0.1-0.8,0.1c-1.3,0-1.5-0.9-1.5-1.2v-3.4h-0.6V126.6z"/>
			<path fill="#929497" d="M201.1,124.3v1.2h-1.5v-1.2H201.1z M201.1,132.1h-1.5v-5.5h1.5V132.1z"/>
			<path fill="#929497" d="M203.6,127.2L203.6,127.2c0.3-0.5,0.7-0.7,1.3-0.7c0.5,0,1,0.3,1.2,0.7c0.4-0.5,0.8-0.7,1.4-0.7
				c0.7,0,1.4,0.4,1.4,1.2v4.4h-1.5v-3.8c0-0.5-0.1-0.9-0.6-0.9c-0.5,0-0.6,0.4-0.6,0.9v3.8h-1.5v-3.8c0-0.5-0.1-0.9-0.6-0.9
				c-0.5,0-0.6,0.4-0.6,0.9v3.8h-1.5v-5.5h1.5V127.2z"/>
			<path fill="#929497" d="M70.9,139.6h0.6v-0.9l1.5-0.7v1.5h0.8v0.9h-0.8v2.9c0,0.4,0,0.7,0.5,0.7c0.1,0,0.2,0,0.3,0v0.9
				c-0.2,0-0.4,0.1-0.8,0.1c-1.3,0-1.5-0.9-1.5-1.2v-3.4h-0.6V139.6z"/>
			<path fill="#929497" d="M74.2,142.3c0-1.5,0.2-2.8,2.2-2.8c2,0,2.2,1.3,2.2,2.8c0,1.7-0.3,2.9-2.2,2.9S74.2,144,74.2,142.3z
				 M77.1,142.2c0-1.1-0.1-1.7-0.7-1.7c-0.6,0-0.7,0.6-0.7,1.7c0,1.7,0.1,2,0.7,2S77.1,143.8,77.1,142.2z"/>
			<path fill="#929497" d="M83,139.6v0.7h0c0.3-0.6,0.8-0.8,1.4-0.8v1.4c-1.3-0.1-1.4,0.7-1.4,1.2v3h-1.5v-5.5H83z"/>
			<path fill="#929497" d="M86.3,142.6c0,0.6,0,1.6,0.7,1.6c0.5,0,0.6-0.5,0.6-1h1.5c0,0.6-0.2,1.1-0.6,1.4
				c-0.4,0.3-0.9,0.5-1.6,0.5c-2,0-2.2-1.2-2.2-2.9c0-1.5,0.2-2.8,2.2-2.8c2.1,0,2.3,1.3,2.2,3.1H86.3z M87.7,141.7
				c0-0.5,0-1.3-0.7-1.3c-0.7,0-0.7,0.8-0.7,1.3H87.7z"/>
			<path fill="#929497" d="M91.2,143.3c0,0.2,0,0.5,0.1,0.7c0.1,0.2,0.2,0.3,0.6,0.3c0.3,0,0.6-0.2,0.6-0.6c0-1.2-2.7-0.9-2.7-2.6
				c0-1.2,1.2-1.5,2.2-1.5c1,0,2,0.5,1.9,1.7h-1.5c0-0.4,0-0.6-0.2-0.7c-0.1-0.1-0.2-0.1-0.4-0.1c-0.3,0-0.5,0.2-0.5,0.6
				c0,0.9,2.7,0.8,2.7,2.6c0,1-0.8,1.7-2,1.7c-1.3,0-2.2-0.3-2.1-1.9H91.2z"/>
			<path fill="#929497" d="M94.4,142.3c0-1.5,0.2-2.8,2.2-2.8c2,0,2.2,1.3,2.2,2.8c0,1.7-0.3,2.9-2.2,2.9S94.4,144,94.4,142.3z
				 M97.4,142.2c0-1.1-0.1-1.7-0.7-1.7c-0.6,0-0.7,0.6-0.7,1.7c0,1.7,0.1,2,0.7,2S97.4,143.8,97.4,142.2z"/>
			<path fill="#929497" d="M101.4,137.2v7.8h-1.5v-7.8H101.4z"/>
			<path fill="#929497" d="M101.9,139.6h1.5l0.8,4.1h0l0.8-4.1h1.5l-1.5,5.5h-1.7L101.9,139.6z"/>
			<path fill="#929497" d="M108.4,142.6c0,0.6,0,1.6,0.7,1.6c0.5,0,0.6-0.5,0.6-1h1.5c0,0.6-0.2,1.1-0.6,1.4
				c-0.4,0.3-0.9,0.5-1.6,0.5c-2,0-2.2-1.2-2.2-2.9c0-1.5,0.2-2.8,2.2-2.8c2.1,0,2.3,1.3,2.2,3.1H108.4z M109.8,141.7
				c0-0.5,0-1.3-0.7-1.3c-0.7,0-0.7,0.8-0.7,1.3H109.8z"/>
			<path fill="#929497" d="M115.9,137.2v1.2h-1.5v-1.2H115.9z M115.9,145.1h-1.5v-5.5h1.5V145.1z"/>
			<path fill="#929497" d="M119.7,145.1v-0.6h0c-0.3,0.5-0.7,0.7-1.3,0.7c-1.6,0-1.5-1.8-1.5-2.9c0-1.1,0-2.8,1.5-2.8
				c0.6,0,0.9,0.2,1.2,0.6h0v-2.9h1.5v7.8H119.7z M119.6,142.3c0-1.1,0-1.8-0.6-1.8c-0.7,0-0.6,0.8-0.6,1.8c0,1.4,0.1,1.9,0.6,1.9
				C119.5,144.2,119.6,143.7,119.6,142.3z"/>
			<path fill="#929497" d="M123.5,142.6c0,0.6,0,1.6,0.7,1.6c0.5,0,0.6-0.5,0.6-1h1.5c0,0.6-0.2,1.1-0.6,1.4
				c-0.4,0.3-0.9,0.5-1.6,0.5c-2,0-2.2-1.2-2.2-2.9c0-1.5,0.2-2.8,2.2-2.8c2.1,0,2.3,1.3,2.2,3.1H123.5z M124.9,141.7
				c0-0.5,0-1.3-0.7-1.3c-0.7,0-0.7,0.8-0.7,1.3H124.9z"/>
			<path fill="#929497" d="M128.8,140.1L128.8,140.1c0.2-0.2,0.4-0.4,0.6-0.5c0.2-0.1,0.5-0.2,0.7-0.2c0.7,0,1.4,0.4,1.4,1.2v4.4
				h-1.5v-3.8c0-0.5-0.1-0.9-0.6-0.9c-0.5,0-0.6,0.4-0.6,0.9v3.8h-1.5v-5.5h1.5V140.1z"/>
			<path fill="#929497" d="M131.8,139.6h0.6v-0.9l1.5-0.7v1.5h0.8v0.9h-0.8v2.9c0,0.4,0,0.7,0.5,0.7c0.1,0,0.2,0,0.3,0v0.9
				c-0.2,0-0.4,0.1-0.8,0.1c-1.3,0-1.5-0.9-1.5-1.2v-3.4h-0.6V139.6z"/>
			<path fill="#929497" d="M136.8,137.2v1.2h-1.5v-1.2H136.8z M136.8,145.1h-1.5v-5.5h1.5V145.1z"/>
			<path fill="#929497" d="M137.3,139.6h0.6v-0.9l1.5-0.7v1.5h0.8v0.9h-0.8v2.9c0,0.4,0,0.7,0.5,0.7c0.1,0,0.2,0,0.3,0v0.9
				c-0.2,0-0.4,0.1-0.8,0.1c-1.3,0-1.5-0.9-1.5-1.2v-3.4h-0.6V139.6z"/>
			<path fill="#929497" d="M141.6,145.1l-1.5-5.5h1.5l0.8,3.8h0l0.8-3.8h1.5l-2.1,7.5H141L141.6,145.1z"/>
			<path fill="#929497" d="M146.7,139.6h0.6v-0.9l1.5-0.7v1.5h0.8v0.9h-0.8v2.9c0,0.4,0,0.7,0.5,0.7c0.1,0,0.2,0,0.3,0v0.9
				c-0.2,0-0.4,0.1-0.8,0.1c-1.3,0-1.5-0.9-1.5-1.2v-3.4h-0.6V139.6z"/>
			<path fill="#929497" d="M152.7,145.1v-3.8c0-0.5-0.1-0.9-0.6-0.9c-0.5,0-0.6,0.4-0.6,0.9v3.8H150v-7.8h1.5v2.9h0
				c0.2-0.2,0.3-0.4,0.5-0.5c0.2-0.1,0.5-0.2,0.7-0.2c0.7,0,1.4,0.4,1.4,1.2v4.4H152.7z"/>
			<path fill="#929497" d="M156.6,142.6c0,0.6,0,1.6,0.7,1.6c0.5,0,0.6-0.5,0.6-1h1.5c0,0.6-0.2,1.1-0.6,1.4
				c-0.4,0.3-0.9,0.5-1.6,0.5c-2,0-2.2-1.2-2.2-2.9c0-1.5,0.2-2.8,2.2-2.8c2.1,0,2.3,1.3,2.2,3.1H156.6z M158,141.7
				c0-0.5,0-1.3-0.7-1.3c-0.7,0-0.7,0.8-0.7,1.3H158z"/>
			<path fill="#929497" d="M162.6,138.2c-0.6,0-0.7,0.2-0.7,0.7v0.7h0.7v0.9h-0.7v4.5h-1.5v-4.5h-0.7v-0.9h0.7
				c0-1.6-0.1-2.4,1.7-2.4c0.2,0,0.4,0,0.5,0V138.2z"/>
			<path fill="#929497" d="M162.4,139.6h0.6v-0.9l1.5-0.7v1.5h0.8v0.9h-0.8v2.9c0,0.4,0,0.7,0.5,0.7c0.1,0,0.2,0,0.3,0v0.9
				c-0.2,0-0.4,0.1-0.8,0.1c-1.3,0-1.5-0.9-1.5-1.2v-3.4h-0.6V139.6z"/>
			<path fill="#929497" d="M170.6,145.1v-0.6h0c-0.3,0.5-0.7,0.7-1.3,0.7c-1.6,0-1.5-1.8-1.5-2.9c0-1.1,0-2.8,1.5-2.8
				c0.6,0,0.9,0.2,1.2,0.6h0v-2.9h1.5v7.8H170.6z M170.5,142.3c0-1.1,0-1.8-0.6-1.8c-0.7,0-0.6,0.8-0.6,1.8c0,1.4,0.1,1.9,0.6,1.9
				C170.4,144.2,170.5,143.7,170.5,142.3z"/>
			<path fill="#929497" d="M177.2,144c0,0.3,0,0.7,0.1,1h-1.4l-0.1-0.7h0c-0.3,0.6-0.8,0.8-1.4,0.8c-1.1,0-1.5-0.8-1.5-1.7
				c0-1.8,1.4-1.9,2.8-1.9v-0.4c0-0.5-0.1-0.8-0.6-0.8c-0.5,0-0.6,0.4-0.6,0.8H173c0-0.7,0.2-1.1,0.6-1.3c0.3-0.3,0.8-0.4,1.4-0.4
				c1.9,0,2.2,0.8,2.2,1.8V144z M174.4,143.4c0,0.4,0.1,0.9,0.6,0.9c0.9,0,0.8-1.2,0.8-1.8C174.9,142.5,174.4,142.4,174.4,143.4z"/>
			<path fill="#929497" d="M179.6,140.1L179.6,140.1c0.3-0.5,0.7-0.7,1.3-0.7c0.5,0,1,0.3,1.2,0.7c0.4-0.5,0.8-0.7,1.4-0.7
				c0.7,0,1.4,0.4,1.4,1.2v4.4h-1.5v-3.8c0-0.5-0.1-0.9-0.6-0.9c-0.5,0-0.6,0.4-0.6,0.9v3.8h-1.5v-3.8c0-0.5-0.1-0.9-0.6-0.9
				c-0.5,0-0.6,0.4-0.6,0.9v3.8h-1.5v-5.5h1.5V140.1z"/>
			<path fill="#929497" d="M189.9,144c0,0.3,0,0.7,0.1,1h-1.4l-0.1-0.7h0c-0.3,0.6-0.8,0.8-1.4,0.8c-1.1,0-1.4-0.8-1.4-1.7
				c0-1.8,1.4-1.9,2.8-1.9v-0.4c0-0.5-0.1-0.8-0.6-0.8c-0.5,0-0.6,0.4-0.6,0.8h-1.5c0-0.7,0.2-1.1,0.6-1.3c0.3-0.3,0.8-0.4,1.4-0.4
				c1.9,0,2.2,0.8,2.2,1.8V144z M187,143.4c0,0.4,0.1,0.9,0.6,0.9c0.9,0,0.8-1.2,0.8-1.8C187.6,142.5,187,142.4,187,143.4z"/>
			<path fill="#929497" d="M195,139.6v5.7c0,0.4,0,1.9-2.1,1.9c-1.1,0-2.1-0.3-2.1-1.6h1.5c0,0.2,0,0.4,0.1,0.6
				c0.1,0.1,0.3,0.2,0.5,0.2c0.4,0,0.6-0.4,0.6-0.9v-1h0c-0.2,0.4-0.7,0.6-1.2,0.6c-1.7,0-1.6-1.5-1.6-2.8c0-1.2,0-2.7,1.6-2.7
				c0.5,0,1,0.2,1.2,0.7h0v-0.6H195z M192.9,144c0.6,0,0.6-0.6,0.6-1.7c0-1.2-0.1-1.9-0.6-1.9c-0.6,0-0.7,0.4-0.7,2.1
				C192.2,143,192.1,144,192.9,144z"/>
			<path fill="#929497" d="M197.4,142.6c0,0.6,0,1.6,0.7,1.6c0.5,0,0.6-0.5,0.6-1h1.5c0,0.6-0.2,1.1-0.6,1.4
				c-0.4,0.3-0.9,0.5-1.6,0.5c-2,0-2.2-1.2-2.2-2.9c0-1.5,0.2-2.8,2.2-2.8c2.1,0,2.3,1.3,2.2,3.1H197.4z M198.8,141.7
				c0-0.5,0-1.3-0.7-1.3c-0.7,0-0.7,0.8-0.7,1.3H198.8z"/>
			<path fill="#929497" d="M202.4,143.6v1.4h-1.3v-1.4H202.4z"/>
		</g>
		<g>
			<path fill="#929497" d="M100.5,58.2h-3.3V42.7h6c2.2,0,3.6,1.4,3.6,4.1c0,2-0.8,3.5-2.9,3.8v0c0.7,0.1,2.8,0.3,2.8,3.1
				c0,1,0.1,3.9,0.4,4.6H104c-0.4-0.9-0.3-2-0.3-3c0-1.9,0.2-3.4-2.3-3.4h-0.8V58.2z M100.5,49.4h1.4c1.3,0,1.7-1.3,1.7-2.3
				c0-1.5-0.6-2-1.7-2h-1.4V49.4z"/>
			<path fill="#929497" d="M109.3,58.2V42.7h8.5v2.4h-5.2v3.8h4.8v2.4h-4.8v4.5h5.4v2.4H109.3z"/>
			<path fill="#929497" d="M119.9,50.4c0-4.1,0-8,5.4-8c3.3,0,4.7,1.8,4.5,5.2h-3.2c0-2.1-0.4-2.8-1.3-2.8c-1.8,0-2.1,1.7-2.1,5.7
				c0,4,0.2,5.7,2.1,5.7c1.5,0,1.4-1.9,1.5-3.2h3.2c0,4.2-1.7,5.5-4.7,5.5C119.9,58.5,119.9,54.5,119.9,50.4z"/>
			<path fill="#929497" d="M132,58.2V42.7h8.5v2.4h-5.2v3.8h4.8v2.4h-4.8v4.5h5.4v2.4H132z"/>
			<path fill="#929497" d="M142.8,58.2V42.7h3.3v15.6H142.8z"/>
			<path fill="#929497" d="M148.8,42.7h5.9c3,0,4.1,1.8,4.1,4.7c0,1.8-0.5,4.6-4.3,4.6h-2.4v6.3h-3.3V42.7z M152.1,49.5h1.8
				c1,0,1.6-1.1,1.6-2.1c0-1.3-0.3-2.4-1.8-2.4h-1.6V49.5z"/>
			<path fill="#929497" d="M170,42.7v2.6h-3.6v13h-3.3v-13h-3.6v-2.6H170z"/>
		</g>
		<g>
			<path fill="#929497" d="M58.8,94h4c2.1,0,2.9,1.2,2.9,3.2c0,1.2-0.4,3.2-3,3.2H61v4.4h-2.2V94z M61,98.8h1.2
				c0.7,0,1.1-0.7,1.1-1.4c0-0.9-0.2-1.6-1.2-1.6H61V98.8z"/>
			<path fill="#929497" d="M69.2,104.8H67V94h4.1c1.5,0,2.5,1,2.5,2.8c0,1.4-0.5,2.4-2,2.6v0c0.5,0.1,1.9,0.2,1.9,2.1
				c0,0.7,0,2.7,0.3,3.2h-2.2c-0.3-0.7-0.2-1.4-0.2-2.1c0-1.3,0.1-2.4-1.6-2.4h-0.6V104.8z M69.2,98.7h1c0.9,0,1.1-0.9,1.1-1.6
				c0-1-0.4-1.4-1.1-1.4h-1V98.7z"/>
			<path fill="#929497" d="M75.3,104.8V94h2.2v10.7H75.3z"/>
			<path fill="#929497" d="M79.3,99.4c0-2.8,0-5.5,3.7-5.5c2.3,0,3.2,1.3,3.1,3.6h-2.2c0-1.4-0.3-2-0.9-2c-1.3,0-1.4,1.2-1.4,3.9
				c0,2.8,0.2,3.9,1.4,3.9c1,0,1-1.3,1-2.2h2.2c0,2.9-1.1,3.8-3.2,3.8C79.3,105,79.3,102.2,79.3,99.4z"/>
			<path fill="#929497" d="M87.7,104.8V94h5.9v1.6h-3.6v2.6h3.3v1.7h-3.3v3.1h3.7v1.6H87.7z"/>
			<path fill="#929497" d="M96.7,97.3v2h-1.8v-2H96.7z M96.7,104.8h-1.8v-2h1.8V104.8z"/>
		</g>
		<g>
			<path fill="#929497" d="M132.8,91.8v1.4c0.8,0,3.5,0.1,3.6,2.7h-1.8c0-1.1-0.9-1.4-1.9-1.4V98c1.7,0.5,3.8,1.1,3.8,3.4
				c0,1.6-1.1,2.5-1.5,2.8c-0.8,0.5-1.7,0.6-2.3,0.6v1.7h-0.9v-1.7c-0.7,0-1.8,0-2.8-0.9c-0.9-0.8-0.9-1.6-0.9-2.3h1.7
				c0,0.7,0.4,1.8,2,1.8v-3.9c-2.7-0.8-3.5-1.5-3.5-3.3c0-1.4,0.8-2.1,1.4-2.5c0.8-0.5,1.7-0.5,2.1-0.5v-1.4H132.8z M132,94.5
				c-1.8,0.2-1.9,1.3-1.9,1.6c0,1.1,1.1,1.4,1.9,1.7V94.5z M132.8,103.4c1.5,0,2.1-1,2.1-1.8c0-1.3-1.2-1.7-2.1-1.9V103.4z"/>
			<path fill="#929497" d="M137.9,96.1c0-1,0.7-3.2,3.7-3.2c2.4,0,3.8,1.3,3.8,3.1c0,1.1-0.7,2.3-2.4,2.6c0.7,0.2,2.5,0.7,2.5,2.9
				c0,1.6-1.1,3.4-4,3.4c-1,0-2.2-0.2-3-1c-0.6-0.6-1-1.4-1-2.3c0-0.8,0.3-1.6,0.9-2.1c0.6-0.6,1.2-0.7,1.7-0.9
				C138.7,98.3,137.9,97.3,137.9,96.1z M141.7,103.7c1.9,0,2.3-1.3,2.3-2.2c0-1.3-1-2.1-2.3-2.1c-1.4,0-2.4,1-2.4,2.2
				C139.4,102.4,140,103.7,141.7,103.7z M141.7,94.2c-1.2,0-2.2,0.7-2.2,1.9c0,1.1,0.9,1.9,2.1,1.9c1.3,0,2.2-0.7,2.2-1.9
				C143.9,95,143.1,94.2,141.7,94.2z"/>
			<path fill="#929497" d="M152,102.3h-5.2v-2l5-7.2h1.8v7.9h1.7v1.4h-1.7v2.5H152V102.3z M152.1,100.9v-6.1l-4,6.1H152.1z"/>
			<path fill="#929497" d="M158.5,95c-0.7,0.6-1.9,1.3-2.7,1.7V95c1.1-0.6,2.2-1.3,2.8-1.8h1.5v11.6h-1.6V95z"/>
			<path fill="#929497" d="M163.9,99.7h4.2v1.3h-4.2V99.7z"/>
			<path fill="#929497" d="M173.9,91.8v1.4c0.8,0,3.5,0.1,3.6,2.7h-1.8c0-1.1-0.9-1.4-1.9-1.4V98c1.7,0.5,3.8,1.1,3.8,3.4
				c0,1.6-1.1,2.5-1.5,2.8c-0.8,0.5-1.7,0.6-2.3,0.6v1.7H173v-1.7c-0.7,0-1.8,0-2.8-0.9c-0.9-0.8-0.9-1.6-0.9-2.3h1.7
				c0,0.7,0.4,1.8,2,1.8v-3.9c-2.7-0.8-3.5-1.5-3.5-3.3c0-1.4,0.8-2.1,1.4-2.5c0.8-0.5,1.7-0.5,2.1-0.5v-1.4H173.9z M173,94.5
				c-1.8,0.2-1.9,1.3-1.9,1.6c0,1.1,1.1,1.4,1.9,1.7V94.5z M173.9,103.4c1.5,0,2.1-1,2.1-1.8c0-1.3-1.2-1.7-2.1-1.9V103.4z"/>
			<path fill="#929497" d="M182.6,95c-0.7,0.6-1.9,1.3-2.7,1.7V95c1.1-0.6,2.2-1.3,2.8-1.8h1.5v11.6h-1.6V95z"/>
			<path fill="#929497" d="M192.8,101.8c0,1.1,0.7,1.9,2.1,1.9c1.6,0,2.3-1,2.3-2.1c0-1.2-0.8-1.9-1.7-2c-0.6-0.1-1-0.1-1.6-0.1
				v-1.4c1.2,0.1,3.1-0.1,3.1-2c0-1.3-0.9-1.8-2-1.8c-0.9,0-2,0.4-2.1,1.8h-1.7c0.1-2.9,2.8-3.2,3.7-3.2c2.5,0,3.8,1.5,3.8,3.1
				c0,1-0.5,2.3-2.3,2.7c2.5,0.4,2.5,2.6,2.5,2.8c0,1.6-1.3,3.4-4,3.4c-1.2,0-2.4-0.4-3.2-1.2c-0.7-0.7-0.7-1.6-0.7-2.1H192.8z"/>
			<path fill="#929497" d="M199.4,93.2h7.6v1.4l-4.2,10.2h-1.9l4.4-10.2h-5.9V93.2z"/>
			<path fill="#929497" d="M208.1,96.1c0-1,0.7-3.2,3.7-3.2c2.4,0,3.8,1.3,3.8,3.1c0,1.1-0.7,2.3-2.4,2.6c0.7,0.2,2.5,0.7,2.5,2.9
				c0,1.6-1.1,3.4-4,3.4c-1,0-2.2-0.2-3-1c-0.6-0.6-1-1.4-1-2.3c0-0.8,0.3-1.6,0.9-2.1c0.6-0.6,1.2-0.7,1.7-0.9
				C208.9,98.3,208.1,97.3,208.1,96.1z M211.9,103.7c1.9,0,2.3-1.3,2.3-2.2c0-1.3-1-2.1-2.3-2.1c-1.4,0-2.4,1-2.4,2.2
				C209.6,102.4,210.2,103.7,211.9,103.7z M211.9,94.2c-1.2,0-2.2,0.7-2.2,1.9c0,1.1,0.9,1.9,2.1,1.9c1.3,0,2.2-0.7,2.2-1.9
				C214.1,95,213.3,94.2,211.9,94.2z"/>
		</g>
	</g>
</g>
</svg>
