<?xml version="1.0" encoding="utf-8"?>
<!-- Generator: Adobe Illustrator 19.2.1, SVG Export Plug-In . SVG Version: 6.00 Build 0)  -->
<!DOCTYPE svg PUBLIC "-//W3C//DTD SVG 1.1//EN" "http://www.w3.org/Graphics/SVG/1.1/DTD/svg11.dtd">
<svg version="1.1" id="Layer_1" xmlns="http://www.w3.org/2000/svg" xmlns:xlink="http://www.w3.org/1999/xlink" x="0px" y="0px"
	 width="288px" height="288px" viewBox="0 0 288 288" enable-background="new 0 0 288 288" xml:space="preserve">
<g id="Layer_1_1_">
</g>
<g id="Final_Artwork">
	<ellipse fill="#55C0A1" cx="145.8" cy="173" rx="95.1" ry="94.6"/>
	<path fill="#45BAEB" d="M144.3,78.4c52.7,0,95.4,42.7,95.4,95.4s-42.7,95.4-95.4,95.4"/>
	<path fill="#00A0C3" d="M145.8,168.6L95.6,92.4c0,0,17.3-15.4,49.7-14C145.3,114.7,145.8,168.6,145.8,168.6z"/>
	<path fill="none" stroke="#FFFFFF" stroke-width="3.6392" stroke-miterlimit="10" d="M240.9,172.8c0,52.9-42.8,95.7-95.7,95.7
		s-95.7-42.8-95.7-95.7c0-22.6,7.8-43.4,21-59.8l-10.3-10.3l-4.2,4.2c-1.4,1.4-3.7,1.4-5,0l-3.2-2.9c-1.4-1.4-1.4-3.7,0-5L66,80.7
		c1.4-1.4,3.7-1.4,5,0l3.2,2.9c1.4,1.4,1.4,3.7,0,5.1l-4.7,4.7l9.9,9.9C94,89.4,113,80.2,134.1,77.8V66.6h-2.9
		c-1.9,0-3.4-1.5-3.4-3.4V51.9c0-1.9,1.5-3.4,3.4-3.4h26.3c1.8,0,3.4,1.5,3.4,3.4v11.3c0,1.9-1.5,3.4-3.4,3.4h-2.9v11
		C203,82.2,240.9,123.1,240.9,172.8z"/>
	<path fill="none" stroke="#FFFFFF" stroke-width="3.6392" stroke-miterlimit="10" d="M134.1,77.7c-11.8-4-20.3-15.2-20.3-28.4
		c0-16.6,13.4-30,30-30s30,13.4,30,30c0,12.8-8,23.7-19.3,28"/>
	<path fill="#FFFFFF" d="M134.1,169.4c0-6,4.9-10.9,10.9-10.9s10.9,4.9,10.9,10.9c0,4.4-2.6,8.2-6.3,9.9l-5.1,80.4l0,0l-4.1-80.4
		C136.7,177.6,134.1,173.8,134.1,169.4z"/>
	<path fill="#FFFFFF" d="M152.3,165.9c2.3,3.7,1.2,8.5-2.4,10.9c-3.7,2.3-8.5,1.2-10.9-2.4c-1.7-2.7-1.6-6,0-8.5l-22.2-41.8l0,0
		l27.8,38.3C147.6,162,150.6,163.3,152.3,165.9z"/>
</g>
</svg>
