<?xml version="1.0" encoding="utf-8"?>
<!-- Generator: Adobe Illustrator 19.2.1, SVG Export Plug-In . SVG Version: 6.00 Build 0)  -->
<!DOCTYPE svg PUBLIC "-//W3C//DTD SVG 1.1//EN" "http://www.w3.org/Graphics/SVG/1.1/DTD/svg11.dtd">
<svg version="1.1" id="Layer_1" xmlns="http://www.w3.org/2000/svg" xmlns:xlink="http://www.w3.org/1999/xlink" x="0px" y="0px"
	 width="288px" height="66.5px" viewBox="0 0 288 66.5" enable-background="new 0 0 288 66.5" xml:space="preserve">
<g id="Layer_1_1_">
</g>
<polygon fill="#FFFFFF" points="24.2,57 5.3,57 5.3,30.7 14.8,30.7 14.8,47.7 "/>
<polygon fill="#FFFFFF" points="282.7,30.7 282.7,57 263.8,57 273,47.7 273,30.7 "/>
<rect x="15.7" y="10.3" fill="#FFFFFF" width="256.6" height="36.7"/>
<polygon fill="#FFFFFF" points="272.2,47.7 263.8,56.2 263.8,47.7 "/>
<polygon fill="#FFFFFF" points="24.2,47.7 24.2,56.2 15.7,47.7 "/>
<g>
	<path fill="#00A0C3" d="M31.4,42.1V15.6h5.5v26.5H31.4z"/>
	<path fill="#00A0C3" d="M38.8,15.6h9.3c7.3,0,8.6,4.8,8.6,13.1c0,4.1,0.6,13.4-8.9,13.4h-9C38.8,42.1,38.8,15.6,38.8,15.6z
		 M44.4,38h2.7c3.4,0,4-2.5,4-9.2c0-4.9,0-9.2-3.9-9.2h-2.9V38H44.4z"/>
	<path fill="#00A0C3" d="M58.2,42.1V15.6h14.5v4.1h-8.9v6.5H72v4.1h-8.2v7.8H73v4.1H58.2V42.1z"/>
	<path fill="#00A0C3" d="M74.3,42.1V15.6h7.5L88.9,34H89V15.6h5.2v26.5h-7.3l-7.2-19.4h-0.1v19.4H74.3z"/>
	<path fill="#00A0C3" d="M113.6,15.6V20h-6.2v22.1h-5.5V20h-6.2v-4.4H113.6z"/>
	<path fill="#00A0C3" d="M115.1,42.1V15.6h5.5v26.5H115.1z"/>
	<path fill="#00A0C3" d="M139.9,15.6V20h-6.2v22.1h-5.5V20H122v-4.4H139.9z"/>
	<path fill="#00A0C3" d="M147.8,32.9l-6.9-17.3h6.1l4,11.2l4.2-11.2h5.7l-7.4,17.3v9.2H148v-9.2H147.8z"/>
	<path fill="#00A0C3" d="M187.2,15.6V20H181v22.1h-5.5V20h-6.2v-4.4H187.2z"/>
	<path fill="#00A0C3" d="M200.4,26.2V15.6h5.5v26.5h-5.5V30.3H194v11.8h-5.5V15.6h5.5v10.6H200.4z"/>
	<path fill="#00A0C3" d="M208.2,42.1V15.6h14.5v4.1h-8.9v6.5h8.2v4.1h-8.2v7.8h9.2v4.1h-14.8V42.1z"/>
	<path fill="#00A0C3" d="M224.6,42.1V15.6h13.8v4.1h-8.2v6.8h7.9v4.1h-7.9v11.6h-5.6V42.1z"/>
	<path fill="#00A0C3" d="M258,15.6V20h-6.2v22.1h-5.5V20h-6.2v-4.4H258z"/>
</g>
</svg>
